<?xml version="1.0" encoding="UTF-8"?>
<svg width="36px" height="36px" viewBox="0 0 36 36" version="1.1" xmlns="http://www.w3.org/2000/svg" xmlns:xlink="http://www.w3.org/1999/xlink">
    <!-- Generator: Sketch 51.3 (57544) - http://www.bohemiancoding.com/sketch -->
    <title>icon-64 copy</title>
    <desc>Created with Sketch.</desc>
    <defs></defs>
    <g id="icon-64-copy" stroke="none" stroke-width="1" fill="none" fill-rule="evenodd">
        <g id="Group-2" fill="#FFFFFF" fill-rule="nonzero">
            <g id="Group">
                <path d="M0,35.27025 L0,34.518 C0,34.29 0.03225,28.90575 2.84325,26.12175 C3.69,25.28325 4.8105,24.82125 5.9985,24.82125 C7.1865,24.82125 8.304,25.284 9.144,26.124 C9.98775,26.96775 10.45125,28.089 10.4505,29.28225 C10.44975,30.47175 9.98475,31.58925 9.14325,32.42775 C6.3435,35.217 0.9795,35.26725 0.75225,35.268 L0,35.27025 Z M5.9985,26.32125 C5.208,26.32125 4.4625,26.62875 3.8985,27.1875 C2.1075,28.96125 1.65375,32.226 1.539,33.72675 C3.0375,33.6075 6.297,33.14625 8.085,31.36575 C8.64225,30.81075 8.94975,30.0705 8.9505,29.2815 C8.95125,28.4895 8.643,27.7455 8.0835,27.18525 C7.527,26.628 6.786,26.32125 5.9985,26.32125 Z" id="Shape"></path>
                <path d="M0.75,35.26725 C0.558,35.26725 0.366,35.19375 0.21975,35.0475 C-0.0735,34.75425 -0.0735,34.28025 0.21975,33.987 L4.4625,29.745 C4.75575,29.45175 5.22975,29.45175 5.523,29.745 C5.81625,30.03825 5.81625,30.51225 5.523,30.8055 L1.28025,35.0475 C1.134,35.1945 0.942,35.26725 0.75,35.26725 Z" id="Shape"></path>
                <path d="M11.18325,29.0775 C10.9845,29.0775 10.79325,28.99875 10.653,28.85775 L6.41175,24.61425 C6.1185,24.321 6.1185,23.847 6.41175,23.55375 L29.745,0.21975 C29.886,0.07875 30.0765,0 30.27525,0 C30.474,0 30.66525,0.07875 30.8055,0.21975 L35.0475,4.4625 C35.34075,4.75575 35.34075,5.22975 35.0475,5.523 L11.7135,28.85775 C11.5725,28.998 11.382,29.0775 11.18325,29.0775 Z M8.00175,24.084 L11.1825,27.26625 L33.45675,4.99275 L30.27525,1.8105 L8.00175,24.084 Z" id="Shape"></path>
                <path d="M16.4865,11.046 C16.2945,11.046 16.1025,10.9725 15.95625,10.82625 C15.663,10.533 15.663,10.059 15.95625,9.76575 L24.441,1.28025 C25.90275,-0.18225 28.28325,-0.18225 29.745,1.28025 C30.03825,1.5735 30.03825,2.0475 29.745,2.34075 C29.45175,2.634 28.97775,2.634 28.6845,2.34075 C27.80625,1.4625 26.37825,1.46325 25.5015,2.34075 L17.01675,10.82625 C16.8705,10.9725 16.6785,11.046 16.4865,11.046 Z" id="Shape"></path>
                <path d="M26.0325,14.22825 C25.8405,14.22825 25.6485,14.15475 25.50225,14.0085 L21.26025,9.76575 C20.967,9.4725 20.967,8.9985 21.26025,8.70525 C21.5535,8.412 22.0275,8.412 22.32075,8.70525 L26.56275,12.948 C26.856,13.24125 26.856,13.71525 26.56275,14.0085 C26.4165,14.15475 26.2245,14.22825 26.0325,14.22825 Z" id="Shape"></path>
            </g>
        </g>
        <path d="M16,31.6835938 L18.4433594,31.6835938 C18.4697266,32.6503906 19.1201172,33.2216797 19.9814453,33.2216797 C21.0009766,33.2216797 21.5898438,32.6416016 21.5898438,31.3935547 L21.5898438,23.2460938 L24.1386719,23.2460938 L24.1386719,31.3496094 C24.1386719,34.1269531 22.5039062,35.4716797 20.0078125,35.4716797 C17.3183594,35.4716797 16,33.7050781 16,31.6835938 Z M25.8085938,31.7978516 L28.2519531,31.7978516 C28.3222656,32.6855469 29.1220703,33.4765625 30.6425781,33.4765625 C32.0576172,33.4765625 32.8134766,32.84375 32.8134766,31.9121094 C32.8134766,31.0947266 32.1982422,30.6992188 30.9853516,30.4267578 L29.1835938,30.0136719 C27.4960938,29.6533203 26.0898438,28.7041016 26.0898438,26.6650391 C26.0898438,24.3095703 28.09375,23 30.6337891,23 C33.3144531,23 35.1162109,24.4765625 35.1425781,26.5947266 L32.7695312,26.5947266 C32.7080078,25.7509766 32.0136719,24.96875 30.625,24.96875 C29.3945312,24.96875 28.6298828,25.5488281 28.6298828,26.4716797 C28.6298828,27.1660156 29.1923828,27.6318359 30.2646484,27.8515625 L32.0839844,28.2558594 C33.8417969,28.6337891 35.3271484,29.4863281 35.3271484,31.6660156 C35.3271484,34.0214844 33.4902344,35.4716797 30.5195312,35.4716797 C26.9863281,35.4716797 25.84375,33.4941406 25.8085938,31.7978516 Z" id="JS" fill="#FFFFFF"></path>
    </g>
</svg>