<?xml version="1.0" standalone="no"?>
<!DOCTYPE svg PUBLIC "-//W3C//DTD SVG 20010904//EN"
 "http://www.w3.org/TR/2001/REC-SVG-20010904/DTD/svg10.dtd">
<svg version="1.0" xmlns="http://www.w3.org/2000/svg"
 width="256.000000pt" height="256.000000pt" viewBox="0 0 256.000000 256.000000"
 preserveAspectRatio="xMidYMid meet">
<metadata>
Created by potrace 1.11, written by Peter Selinger 2001-2013
</metadata>
<g transform="translate(0.000000,256.000000) scale(0.100000,-0.100000)"
fill="#000000" stroke="none">
<path d="M1897 2260 c-23 -18 -27 -19 -61 -5 -47 20 -102 19 -151 -4 -51 -23
-525 -495 -525 -522 0 -11 11 -25 25 -31 25 -11 35 -2 273 235 159 158 257
248 275 252 26 7 84 -1 76 -10 -2 -3 -264 -265 -581 -583 -318 -318 -578 -584
-578 -591 0 -7 5 -21 11 -32 9 -17 7 -19 -16 -15 -14 3 -48 -2 -76 -10 -131
-39 -228 -220 -245 -457 l-7 -88 69 2 c160 5 342 70 417 147 41 42 75 120 73
165 -2 26 0 27 28 21 27 -6 59 24 662 627 373 373 634 641 634 652 0 22 -241
267 -262 267 -8 0 -27 -9 -41 -20z m138 -178 c24 -24 49 -49 55 -57 10 -12
-24 -51 -185 -211 l-197 -197 -84 85 -85 84 197 197 197 198 30 -28 c16 -15
48 -47 72 -71z m-750 -888 l-367 -367 -84 84 c-80 80 -83 84 -66 102 9 11 174
177 367 369 l349 349 84 -85 84 -85 -367 -367z m-580 -335 c50 -21 82 -66 88
-125 9 -74 -37 -139 -129 -187 -30 -15 -167 -57 -188 -57 -5 0 21 30 58 68
104 102 111 118 65 143 -18 9 -31 0 -105 -72 l-85 -83 7 39 c3 22 17 68 30
103 59 159 149 217 259 171z"/>
<path d="M1937 1059 c-128 -19 -208 -109 -191 -215 15 -94 52 -124 200 -162
116 -31 154 -55 154 -97 0 -30 -43 -75 -74 -76 -12 0 -31 -2 -44 -3 -36 -4
-101 30 -112 59 -5 14 -17 25 -27 26 -105 6 -113 5 -113 -21 0 -43 42 -102 94
-135 45 -27 58 -30 143 -32 75 -2 103 2 141 18 87 37 126 96 124 187 -2 104
-65 157 -223 187 -90 18 -129 43 -129 85 0 44 39 72 104 73 59 1 90 -16 107
-60 7 -20 16 -23 68 -23 33 0 62 3 64 8 9 14 -22 84 -50 114 -50 53 -145 80
-236 67z"/>
<path d="M1510 826 c0 -279 -8 -306 -89 -306 -32 0 -58 20 -72 57 -8 21 -14
23 -74 23 l-66 0 7 -37 c21 -114 106 -171 242 -160 78 6 132 39 164 100 21 40
22 55 24 295 l2 252 -69 0 -69 0 0 -224z"/>
</g>
</svg>
